# xmcd CD database file generated by OrangeCD 5.2
#
# Track frame offsets:
#	150
#	14390
#	34777
#	50850
#	72792
#	89757
#	107360
#	126652
#	146415
#	161452
#	181950
#
# Disc length: 2696 seconds
#
# Revision: 0
# Processed by: cddbd v1.5.1PL2 Copyright (c) Steve Scherf et al.
# Submitted via: OrangeCD 5.2
#
DISCID=990a860b
DTITLE=Whitten, Jason - Thriftstore Cowboy
DYEAR=2006
DGENRE=Country
TTITLE0=Alibi
TTITLE1=I Still Belive In Love
TTITLE2=Dallas
TTITLE3=Dandelion Girl
TTITLE4=Jessica Drive
TTITLE5=Fingernail Moon
TTITLE6=Lucy (Hungry Heart Cafe)
TTITLE7=Madagascar
TTITLE8=Ruby
TTITLE9=Sunflower
TTITLE10=Use Me
EXTD=
EXTT0=
EXTT1=
EXTT2=
EXTT3=
EXTT4=
EXTT5=
EXTT6=
EXTT7=
EXTT8=
EXTT9=
EXTT10=
PLAYORDER=
